<svg xmlns="http://www.w3.org/2000/svg">
  <defs>
    <symbol id="moon" viewBox="0 0 24 24">
      <path
        d="M8,4.77a12.13,12.13,0,0,0,3.54,7.72A12.1,12.1,0,0,0,19.23,16,8.2,8.2,0,1,1,8,4.77M9.41,2,9.27,2h0A10.21,10.21,0,1,0,22,14.73h0a.54.54,0,0,0-.13-.51l-.09-.09A.51.51,0,0,0,21.4,14h-.06a10,10,0,0,1-1.22.08A10.19,10.19,0,0,1,10,2.66a.55.55,0,0,0-.15-.42l-.09-.09A.51.51,0,0,0,9.41,2Z"
      />
    </symbol>
    <symbol id="search" viewBox="0 0 24 30">
      <path
        d="M20.85,19.44l-4-4a2.44,2.44,0,0,0-.43-.35l-1-.69h0A7,7,0,1,0,10,17a7,7,0,0,0,4.37-1.53h0l.75,1a2.6,2.6,0,0,0,.3.36l4,4a.5.5,0,0,0,.71,0l.7-.7A.5.5,0,0,0,20.85,19.44ZM10,15a5,5,0,1,1,5-5A5,5,0,0,1,10,15Z"
      />
    </symbol>
    <symbol id="logo" viewBox="0 0 694 701.58">
      <g id="Layer_2" data-name="Layer 2">
        <g id="Layer_1-2" data-name="Layer 1">
          <path
            class="cls-1"
            d="M482,490.58c1.49,1.48,44.15-31.07,48.15-34.2,17.4-13.8,33.09-29.58,45.54-48.05,31.57-46.83,50.22-118.95,38.71-174.68-12.9-62.48-42-119.24-93.3-158.65C475.94,40.3,420.44,22,365,11.62c-118-22-365-6-365-6v679l194-195,217,212H694Zm-180-123-110,4v-197c0-.19,57-1,62.54-.93,22.74.43,45.87,2.73,67.14,11.29,37.4,15.05,67.81,46.57,68.32,88.64C391,355.62,302,367.62,302,367.62Z"
          />
        </g>
      </g>
    </symbol>
    <symbol id="github" viewBox="0 0 24 24">
      <path
        class="cls-1"
        d="M22,12a10,10,0,0,1-6.84,9.48.52.52,0,0,1-.45-.07A.51.51,0,0,1,14.5,21V18.33A4,4,0,0,0,14,16.27.25.25,0,0,1,14,16a.27.27,0,0,1,.2-.14C16.64,15.61,18,14.64,18,12a4.71,4.71,0,0,0-1.19-3.36A4.3,4.3,0,0,0,17,7.44a4.33,4.33,0,0,0-.15-1.08A.49.49,0,0,0,16.32,6a4.45,4.45,0,0,0-2.44,1.18,9.91,9.91,0,0,0-3.76,0A4.45,4.45,0,0,0,7.68,6a.49.49,0,0,0-.53.36A4.33,4.33,0,0,0,7,7.44a4.3,4.3,0,0,0,.19,1.2A4.71,4.71,0,0,0,6,12c0,2.78,1.51,3.71,4.28,3.94a3.71,3.71,0,0,0-.69,1.53v0s0,.07,0,.12a.68.68,0,0,0,0,.14.59.59,0,0,1-.64.51h0a1,1,0,0,1-.43-.12A5.34,5.34,0,0,1,7.1,16.86a10.09,10.09,0,0,0-.8-.81,2.74,2.74,0,0,0-.59-.39.49.49,0,0,0-.48,0,.5.5,0,0,0-.23.42v.06a.5.5,0,0,0,.23.42,4.54,4.54,0,0,1,.92,1.05,6.61,6.61,0,0,0,1.59,1.72,2.48,2.48,0,0,0,1.4.42l.36,0V21a.51.51,0,0,1-.21.41.52.52,0,0,1-.45.07A10,10,0,1,1,22,12Z"
      />
    </symbol>
    <symbol id="twitter" viewBox="0 0 24 24">
      <path
        class="cls-1"
        d="M22,6.45a8,8,0,0,1-1.85,1.78c0,.18,0,.36,0,.55A12.2,12.2,0,0,1,7.78,21a12.24,12.24,0,0,1-5.45-1.26.25.25,0,0,1-.15-.23V19.4a.26.26,0,0,1,.26-.26A8.86,8.86,0,0,0,7.56,17.3a4.37,4.37,0,0,1-3.89-2.56.26.26,0,0,1,.26-.36,4,4,0,0,0,1.52-.14A4.36,4.36,0,0,1,2,10.43a.26.26,0,0,1,.36-.26,4,4,0,0,0,1.58.34A4.28,4.28,0,0,1,2.23,5.57a.54.54,0,0,1,.91-.18,12.36,12.36,0,0,0,8.41,3.88,4,4,0,0,1-.12-1,4.36,4.36,0,0,1,7.51-2.94,8.69,8.69,0,0,0,2.39-.83.17.17,0,0,1,.18,0,.17.17,0,0,1,0,.18,4.37,4.37,0,0,1-1.76,2,8.58,8.58,0,0,0,2-.48.16.16,0,0,1,.18,0A.17.17,0,0,1,22,6.45Z"
      />
    </symbol>
    <symbol id="instagram" viewBox="0 0 24 24">
      <path
        d="M16,3H8A5,5,0,0,0,3,8v8a5,5,0,0,0,5,5h8a5,5,0,0,0,5-5V8A5,5,0,0,0,16,3Zm3.25,13A3.26,3.26,0,0,1,16,19.25H8A3.26,3.26,0,0,1,4.75,16V8A3.26,3.26,0,0,1,8,4.75h8A3.26,3.26,0,0,1,19.25,8Zm-1.5-8.75a1,1,0,1,1-1-1A1,1,0,0,1,17.75,7.25ZM12,7.5A4.5,4.5,0,1,0,16.5,12,4.49,4.49,0,0,0,12,7.5Zm0,7.25A2.75,2.75,0,1,1,14.75,12,2.75,2.75,0,0,1,12,14.75Z"
      />
    </symbol>
    <symbol id="info" viewBox="0 0 24 24">
      <path
        d="M12,2A10,10,0,1,0,22,12,10,10,0,0,0,12,2Zm0,18a8,8,0,1,1,8-8A8,8,0,0,1,12,20Zm1-7.5a.5.5,0,0,0-.5-.5h-1a.5.5,0,0,0-.5.5v3a.5.5,0,0,0,.5.5h1a.5.5,0,0,0,.5-.5Zm0-4a.5.5,0,0,0-.5-.5h-1a.5.5,0,0,0-.5.5v1a.5.5,0,0,0,.5.5h1a.5.5,0,0,0,.5-.5Z"
      />
    </symbol>
    <symbol id="right" viewBox="0 2 24 20">
      <path
        d="M15.78,11.28a.75.75,0,0,1,.22.53v.38a.77.77,0,0,1-.22.53l-5.14,5.13a.5.5,0,0,1-.71,0l-.71-.71a.49.49,0,0,1,0-.7L13.67,12,9.22,7.56a.5.5,0,0,1,0-.71l.71-.7a.5.5,0,0,1,.71,0Z"
      />
    </symbol>
    <symbol id="left" viewBox="0 2 24 20">
      <path
        d="M8.22,12.72A.75.75,0,0,1,8,12.19v-.38a.77.77,0,0,1,.22-.53l5.14-5.13a.5.5,0,0,1,.71,0l.71.71a.49.49,0,0,1,0,.7L10.33,12l4.45,4.44a.5.5,0,0,1,0,.71l-.71.7a.5.5,0,0,1-.71,0Z"
      />
    </symbol>
    <symbol id="close" viewBox="0 0 24 24">
      <title>clear</title>
      <path
        d="M17.85,16.44a.5.5,0,0,1,0,.71l-.7.7a.5.5,0,0,1-.71,0L12,13.41,7.56,17.85a.5.5,0,0,1-.71,0l-.7-.7a.5.5,0,0,1,0-.71L10.59,12,6.15,7.56a.5.5,0,0,1,0-.71l.7-.7a.5.5,0,0,1,.71,0L12,10.59l4.44-4.44a.5.5,0,0,1,.71,0l.7.7a.5.5,0,0,1,0,.71L13.41,12Z"
      />
    </symbol>
    <symbol id="sun" viewBox="0 0 24 24">
      <title>light mode</title>
      <path
        d="M12,9a3,3,0,1,1-3,3,3,3,0,0,1,3-3m0-2a5,5,0,1,0,5,5,5,5,0,0,0-5-5Zm-.5-2h1a.5.5,0,0,0,.5-.5v-2a.5.5,0,0,0-.5-.5h-1a.5.5,0,0,0-.5.5v2A.5.5,0,0,0,11.5,5Zm1,14h-1a.5.5,0,0,0-.5.5v2a.5.5,0,0,0,.5.5h1a.5.5,0,0,0,.5-.5v-2A.5.5,0,0,0,12.5,19Zm9-8h-2a.5.5,0,0,0-.5.5v1a.5.5,0,0,0,.5.5h2a.5.5,0,0,0,.5-.5v-1A.5.5,0,0,0,21.5,11ZM5,12.5v-1a.5.5,0,0,0-.5-.5h-2a.5.5,0,0,0-.5.5v1a.5.5,0,0,0,.5.5h2A.5.5,0,0,0,5,12.5ZM17.3,7.4a.5.5,0,0,0,.71,0L19.42,6a.5.5,0,0,0,0-.71l-.7-.7a.5.5,0,0,0-.71,0L16.6,6a.5.5,0,0,0,0,.71ZM6.7,16.6a.5.5,0,0,0-.71,0L4.58,18a.5.5,0,0,0,0,.71l.7.7a.5.5,0,0,0,.71,0L7.4,18a.5.5,0,0,0,0-.71ZM18,16.6a.5.5,0,0,0-.71,0l-.7.7a.5.5,0,0,0,0,.71L18,19.42a.5.5,0,0,0,.71,0l.7-.7a.5.5,0,0,0,0-.71ZM6,7.4a.5.5,0,0,0,.71,0l.7-.7A.5.5,0,0,0,7.4,6L6,4.58a.5.5,0,0,0-.71,0l-.7.7a.5.5,0,0,0,0,.71Z"
      />
    </symbol>
  </defs>
</svg>
