
<svg xmlns="http://www.w3.org/2000/svg" viewBox="0 0 694 701.62"><defs><style>.cls-1{fill:#d74034;}</style></defs><title>Logo V2_1</title><g id="Layer_2" data-name="Layer 2"><g id="Layer_2_copy" data-name="Layer 2 copy"><path class="cls-1" d="M0,684.62V5.62s247-16,365,6C420.44,22,475.94,40.3,521.1,75c51.25,39.41,80.4,96.17,93.3,158.65,11.51,55.73-7.14,127.85-38.71,174.68-12.45,18.47-28.14,34.25-45.54,48.05-4,3.13-46.66,35.68-48.15,34.2l212,211H411l-217-212Zm302-317s89-12,88-94c-.51-42.07-30.92-73.59-68.32-88.64-21.27-8.56-44.4-10.86-67.14-11.29-5.56-.1-62.54.74-62.54.93v197Z"/></g></g></svg>